<mxfile host="app.diagrams.net" modified="2021-12-25T02:39:31.353Z" agent="5.0 (Windows NT 10.0; Win64; x64) AppleWebKit/537.36 (KHTML, like Gecko) Chrome/96.0.4664.110 Safari/537.36" etag="f4-RhYobq34mdpr8ZIln" version="16.0.3" type="github">
  <diagram id="jiUmKCNPmTVctYRyUmwk" name="Page-1">
    <mxGraphModel dx="850" dy="427" grid="1" gridSize="10" guides="1" tooltips="1" connect="1" arrows="1" fold="1" page="1" pageScale="1" pageWidth="827" pageHeight="1169" math="0" shadow="0">
      <root>
        <mxCell id="0" />
        <mxCell id="1" parent="0" />
        <mxCell id="9xFEdgIHhNXRVokLLZbv-1" value="" style="rounded=1;whiteSpace=wrap;html=1;fillColor=#f5f5f5;fontColor=#333333;strokeColor=#666666;" vertex="1" parent="1">
          <mxGeometry x="80" y="90" width="260" height="200" as="geometry" />
        </mxCell>
        <mxCell id="9xFEdgIHhNXRVokLLZbv-2" value="Chunks" style="text;html=1;strokeColor=none;fillColor=none;align=center;verticalAlign=middle;whiteSpace=wrap;rounded=0;" vertex="1" parent="1">
          <mxGeometry x="90" y="100" width="60" height="30" as="geometry" />
        </mxCell>
        <mxCell id="9xFEdgIHhNXRVokLLZbv-3" value="88 bytes" style="rounded=1;whiteSpace=wrap;html=1;fillColor=#f8cecc;strokeColor=#b85450;" vertex="1" parent="1">
          <mxGeometry x="90" y="130" width="90" height="40" as="geometry" />
        </mxCell>
        <mxCell id="9xFEdgIHhNXRVokLLZbv-4" value="88 bytes" style="rounded=1;whiteSpace=wrap;html=1;fillColor=#f8cecc;strokeColor=#b85450;" vertex="1" parent="1">
          <mxGeometry x="220" y="130" width="90" height="40" as="geometry" />
        </mxCell>
        <mxCell id="9xFEdgIHhNXRVokLLZbv-5" value="88 bytes" style="rounded=1;whiteSpace=wrap;html=1;fillColor=#f8cecc;strokeColor=#b85450;" vertex="1" parent="1">
          <mxGeometry x="90" y="200" width="90" height="40" as="geometry" />
        </mxCell>
        <mxCell id="9xFEdgIHhNXRVokLLZbv-8" value="......" style="rounded=1;whiteSpace=wrap;html=1;fillColor=#f8cecc;strokeColor=#b85450;" vertex="1" parent="1">
          <mxGeometry x="220" y="200" width="90" height="40" as="geometry" />
        </mxCell>
        <mxCell id="9xFEdgIHhNXRVokLLZbv-9" value="Slab Class:1" style="text;html=1;strokeColor=none;fillColor=none;align=center;verticalAlign=middle;whiteSpace=wrap;rounded=0;" vertex="1" parent="1">
          <mxGeometry x="90" y="60" width="100" height="30" as="geometry" />
        </mxCell>
        <mxCell id="9xFEdgIHhNXRVokLLZbv-10" value="" style="rounded=1;whiteSpace=wrap;html=1;fillColor=#f5f5f5;fontColor=#333333;strokeColor=#666666;" vertex="1" parent="1">
          <mxGeometry x="400" y="90" width="260" height="200" as="geometry" />
        </mxCell>
        <mxCell id="9xFEdgIHhNXRVokLLZbv-11" value="Chunks" style="text;html=1;strokeColor=none;fillColor=none;align=center;verticalAlign=middle;whiteSpace=wrap;rounded=0;" vertex="1" parent="1">
          <mxGeometry x="410" y="100" width="60" height="30" as="geometry" />
        </mxCell>
        <mxCell id="9xFEdgIHhNXRVokLLZbv-12" value="112&amp;nbsp;bytes" style="rounded=1;whiteSpace=wrap;html=1;fillColor=#f8cecc;strokeColor=#b85450;" vertex="1" parent="1">
          <mxGeometry x="410" y="130" width="90" height="40" as="geometry" />
        </mxCell>
        <mxCell id="9xFEdgIHhNXRVokLLZbv-13" value="112 bytes" style="rounded=1;whiteSpace=wrap;html=1;fillColor=#f8cecc;strokeColor=#b85450;" vertex="1" parent="1">
          <mxGeometry x="540" y="130" width="90" height="40" as="geometry" />
        </mxCell>
        <mxCell id="9xFEdgIHhNXRVokLLZbv-14" value="112 bytes" style="rounded=1;whiteSpace=wrap;html=1;fillColor=#f8cecc;strokeColor=#b85450;" vertex="1" parent="1">
          <mxGeometry x="410" y="200" width="90" height="40" as="geometry" />
        </mxCell>
        <mxCell id="9xFEdgIHhNXRVokLLZbv-15" value="......" style="rounded=1;whiteSpace=wrap;html=1;fillColor=#f8cecc;strokeColor=#b85450;" vertex="1" parent="1">
          <mxGeometry x="540" y="200" width="90" height="40" as="geometry" />
        </mxCell>
        <mxCell id="9xFEdgIHhNXRVokLLZbv-16" value="Slab Class:2" style="text;html=1;strokeColor=none;fillColor=none;align=center;verticalAlign=middle;whiteSpace=wrap;rounded=0;" vertex="1" parent="1">
          <mxGeometry x="410" y="60" width="100" height="30" as="geometry" />
        </mxCell>
        <mxCell id="9xFEdgIHhNXRVokLLZbv-17" value="" style="rounded=1;whiteSpace=wrap;html=1;fillColor=#f5f5f5;fontColor=#333333;strokeColor=#666666;" vertex="1" parent="1">
          <mxGeometry x="80" y="330" width="260" height="200" as="geometry" />
        </mxCell>
        <mxCell id="9xFEdgIHhNXRVokLLZbv-18" value="Chunks" style="text;html=1;strokeColor=none;fillColor=none;align=center;verticalAlign=middle;whiteSpace=wrap;rounded=0;" vertex="1" parent="1">
          <mxGeometry x="90" y="340" width="60" height="30" as="geometry" />
        </mxCell>
        <mxCell id="9xFEdgIHhNXRVokLLZbv-19" value="144 bytes" style="rounded=1;whiteSpace=wrap;html=1;fillColor=#f8cecc;strokeColor=#b85450;" vertex="1" parent="1">
          <mxGeometry x="90" y="370" width="90" height="40" as="geometry" />
        </mxCell>
        <mxCell id="9xFEdgIHhNXRVokLLZbv-20" value="144 bytes" style="rounded=1;whiteSpace=wrap;html=1;fillColor=#f8cecc;strokeColor=#b85450;" vertex="1" parent="1">
          <mxGeometry x="220" y="370" width="90" height="40" as="geometry" />
        </mxCell>
        <mxCell id="9xFEdgIHhNXRVokLLZbv-21" value="144 bytes" style="rounded=1;whiteSpace=wrap;html=1;fillColor=#f8cecc;strokeColor=#b85450;" vertex="1" parent="1">
          <mxGeometry x="90" y="440" width="90" height="40" as="geometry" />
        </mxCell>
        <mxCell id="9xFEdgIHhNXRVokLLZbv-22" value="......" style="rounded=1;whiteSpace=wrap;html=1;fillColor=#f8cecc;strokeColor=#b85450;" vertex="1" parent="1">
          <mxGeometry x="220" y="440" width="90" height="40" as="geometry" />
        </mxCell>
        <mxCell id="9xFEdgIHhNXRVokLLZbv-23" value="Slab Class:3" style="text;html=1;strokeColor=none;fillColor=none;align=center;verticalAlign=middle;whiteSpace=wrap;rounded=0;" vertex="1" parent="1">
          <mxGeometry x="90" y="300" width="100" height="30" as="geometry" />
        </mxCell>
        <mxCell id="9xFEdgIHhNXRVokLLZbv-31" value="" style="rounded=1;whiteSpace=wrap;html=1;fillColor=#f5f5f5;fontColor=#333333;strokeColor=#666666;" vertex="1" parent="1">
          <mxGeometry x="400" y="330" width="260" height="200" as="geometry" />
        </mxCell>
        <mxCell id="9xFEdgIHhNXRVokLLZbv-32" value="Chunks" style="text;html=1;strokeColor=none;fillColor=none;align=center;verticalAlign=middle;whiteSpace=wrap;rounded=0;" vertex="1" parent="1">
          <mxGeometry x="410" y="340" width="60" height="30" as="geometry" />
        </mxCell>
        <mxCell id="9xFEdgIHhNXRVokLLZbv-33" value="N bytes" style="rounded=1;whiteSpace=wrap;html=1;fillColor=#f8cecc;strokeColor=#b85450;" vertex="1" parent="1">
          <mxGeometry x="410" y="370" width="90" height="40" as="geometry" />
        </mxCell>
        <mxCell id="9xFEdgIHhNXRVokLLZbv-34" value="N bytes" style="rounded=1;whiteSpace=wrap;html=1;fillColor=#f8cecc;strokeColor=#b85450;" vertex="1" parent="1">
          <mxGeometry x="540" y="370" width="90" height="40" as="geometry" />
        </mxCell>
        <mxCell id="9xFEdgIHhNXRVokLLZbv-35" value="N bytes" style="rounded=1;whiteSpace=wrap;html=1;fillColor=#f8cecc;strokeColor=#b85450;" vertex="1" parent="1">
          <mxGeometry x="410" y="440" width="90" height="40" as="geometry" />
        </mxCell>
        <mxCell id="9xFEdgIHhNXRVokLLZbv-36" value="......" style="rounded=1;whiteSpace=wrap;html=1;fillColor=#f8cecc;strokeColor=#b85450;" vertex="1" parent="1">
          <mxGeometry x="540" y="440" width="90" height="40" as="geometry" />
        </mxCell>
        <mxCell id="9xFEdgIHhNXRVokLLZbv-37" value="Slab Class:n" style="text;html=1;strokeColor=none;fillColor=none;align=center;verticalAlign=middle;whiteSpace=wrap;rounded=0;" vertex="1" parent="1">
          <mxGeometry x="410" y="300" width="100" height="30" as="geometry" />
        </mxCell>
      </root>
    </mxGraphModel>
  </diagram>
</mxfile>
